<svg width="89" height="85" viewBox="0 0 89 85" fill="none" xmlns="http://www.w3.org/2000/svg">
<rect width="89" height="85" rx="42" fill="#1E99F5"/>
<path d="M39.7793 39.959L41.0273 38.5527H42.8906L45.1055 27.3555C42.7031 27.3555 40.752 28.0059 39.252 29.3066C37.7637 30.5957 37.0195 32.2832 37.0195 34.3691L37.0371 34.7559L33.6094 36.4082C33.9141 32.8105 35.3086 30.1738 37.793 28.498C40.2891 26.8223 44.0508 25.9844 49.0781 25.9844H59.2207L57.6387 30.959H56.5137C56.666 30.4902 56.7422 30.0273 56.7422 29.5703C56.7422 28.0469 54.3457 27.2852 49.5527 27.2852H48.7969L46.5645 38.5527H54.2285L52.4883 40.3457C50.6133 40.0879 48.832 39.959 47.1445 39.959H46.2832L45.2637 45.1094C44.4082 49.4453 42.75 52.9082 40.2891 55.498C37.8398 58.0879 34.9863 59.3828 31.7285 59.3828C29.9707 59.3828 28.4004 58.7207 27.0176 57.3965L29.6016 54.7598C30.5273 56.6816 32.0156 57.6426 34.0664 57.6426C35.9414 57.6426 37.4121 56.793 38.4785 55.0938C39.5566 53.4062 40.5234 50.4121 41.3789 46.1113L42.6094 39.959H39.7793Z" fill="black"/>
</svg>
